<svg aria-hidden="true" style="position: absolute; width: 0; height: 0; overflow: hidden;" version="1.1" xmlns="http://www.w3.org/2000/svg" xmlns:xlink="http://www.w3.org/1999/xlink">
<defs>

<symbol id="icon-close" viewBox="0 0 32 32">
<path d="M32 3.223l-3.223-3.223-12.777 12.777-12.777-12.777-3.223 3.223 12.777 12.777-12.777 12.777 3.223 3.223 12.777-12.777 12.777 12.777 3.223-3.223-12.777-12.777 12.777-12.777z"></path>
</symbol>

<symbol id="icon-email-svg" viewBox="0 0 43 32">
<path d="M37.333 0h-32c-2.2 0-3.98 1.8-3.98 4l-0.020 24c0 2.2 1.8 4 4 4h32c2.2 0 4-1.8 4-4v-24c0-2.2-1.8-4-4-4zM36.533 8.5l-14.14 8.84c-0.64 0.4-1.48 0.4-2.12 0l-14.14-8.84c-0.5-0.32-0.8-0.86-0.8-1.44 0-1.34 1.46-2.14 2.6-1.44l13.4 8.38 13.4-8.38c1.14-0.7 2.6 0.1 2.6 1.44 0 0.58-0.3 1.12-0.8 1.44z"></path>
</symbol>

<symbol id="icon-name-svg" viewBox="0 0 32 32">
<path d="M16 16c4.42 0 8-3.58 8-8s-3.58-8-8-8c-4.42 0-8 3.58-8 8s3.58 8 8 8zM16 20c-5.34 0-16 2.68-16 8v2c0 1.1 0.9 2 2 2h28c1.1 0 2-0.9 2-2v-2c0-5.32-10.66-8-16-8z"></path>
</symbol>

<symbol id="icon-tel-svg" viewBox="0 0 32 32">
<path d="M27.419 20.852l-4.201-0.48c-1.009-0.116-2.002 0.232-2.713 0.943l-3.044 3.044c-4.681-2.382-8.519-6.203-10.901-10.901l3.060-3.060c0.711-0.711 1.059-1.704 0.943-2.713l-0.48-4.168c-0.198-1.671-1.604-2.928-3.292-2.928h-2.862c-1.869 0-3.424 1.555-3.308 3.424 0.877 14.126 12.174 25.407 26.284 26.284 1.869 0.116 3.424-1.439 3.424-3.308v-2.861c0.016-1.671-1.241-3.077-2.911-3.275z"></path>
</symbol>

<symbol id="icon-close-menu" viewBox="0 0 32 32">
<path d="M31.439 3.166l-3.166-3.166-12.553 12.553-12.553-12.553-3.166 3.166 12.553 12.553-12.553 12.553 3.166 3.166 12.553-12.553 12.553 12.553 3.166-3.166-12.553-12.553 12.553-12.553z"></path>
</symbol>

<symbol id="icon-menu" viewBox="0 0 48 32">
<path d="M0 5.333v-5.333h48v5.333h-48zM0 18.667h48v-5.333h-48v5.333zM0 32h48v-5.333h-48v5.333z"></path>
</symbol>
<symbol id="icon-logo" viewBox="0 0 32 32">
<path fill="#f22bb2" style="fill: var(--color1, #f22bb2)" d="M0.658 32h10.849c5.145 0 9.315-4.171 9.315-9.315h-10.849c-5.145 0-9.315 4.171-9.315 9.315z"></path>
<path fill="#9b44ff" style="fill: var(--color2, #9b44ff)" d="M1.143 9.315v13.699c5.145 0 9.315-4.171 9.315-9.315v-13.699c-5.145 0-9.315 4.17-9.315 9.315z"></path>
<path fill="#fe9a22" style="fill: var(--color3, #fe9a22)" d="M31.342 0h-10.849c-5.145 0-9.315 4.17-9.315 9.315h10.849c5.145 0 9.315-4.17 9.315-9.315z"></path>
<path fill="#2ec5ce" style="fill: var(--color4, #2ec5ce)" d="M31.342 22.137v-13.699c-5.145 0-9.315 4.17-9.315 9.315v13.699c5.145 0 9.315-4.171 9.315-9.315z"></path>
</symbol>
<symbol id="icon-deploy" viewBox="0 0 32 32">
<path fill="#8c30f5" style="fill: var(--color1, #8c30f5)" d="M11.636 13.091h-10.182c-0.386 0-0.756-0.153-1.029-0.426s-0.426-0.643-0.426-1.029v-10.182c0-0.386 0.153-0.756 0.426-1.029s0.643-0.426 1.029-0.426h10.182c0.386 0 0.756 0.153 1.029 0.426s0.426 0.643 0.426 1.029v10.182c0 0.386-0.153 0.756-0.426 1.029s-0.643 0.426-1.029 0.426z"></path>
<path fill="#8c30f5" style="fill: var(--color1, #8c30f5)" d="M11.636 32h-10.182c-0.386 0-0.756-0.153-1.029-0.426s-0.426-0.643-0.426-1.029v-10.182c0-0.386 0.153-0.756 0.426-1.029s0.643-0.426 1.029-0.426h10.182c0.386 0 0.756 0.153 1.029 0.426s0.426 0.643 0.426 1.029v10.182c0 0.386-0.153 0.756-0.426 1.029s-0.643 0.426-1.029 0.426z"></path>
<path fill="#2ec5ce" style="fill: var(--color2, #2ec5ce)" d="M17.455 1.455h14.545v2.909h-14.545v-2.909z"></path>
<path fill="#2ec5ce" style="fill: var(--color2, #2ec5ce)" d="M32 20.364h-14.545v2.909h14.545v-2.909z"></path>
<path fill="#d6b1ff" style="fill: var(--color3, #d6b1ff)" d="M32 27.636h-14.545v2.909h14.545v-2.909z"></path>
<path fill="#d6b1ff" style="fill: var(--color3, #d6b1ff)" d="M32 8.727h-14.545v2.909h14.545v-2.909z"></path>
</symbol>
<symbol id="icon-design" viewBox="0 0 32 32">
<path fill="#2ec5ce" style="fill: var(--color2, #2ec5ce)" d="M32 7.273v-5.818c0-0.386-0.153-0.756-0.426-1.029s-0.643-0.426-1.029-0.426h-29.091c-0.386 0-0.756 0.153-1.029 0.426s-0.426 0.643-0.426 1.029v5.818h32z"></path>
<path fill="#d6b1ff" style="fill: var(--color3, #d6b1ff)" d="M0 10.182v20.364c0 0.386 0.153 0.756 0.426 1.029s0.643 0.426 1.029 0.426h7.273v-21.818h-8.727z"></path>
<path fill="#8c30f5" style="fill: var(--color1, #8c30f5)" d="M11.636 32h18.909c0.386 0 0.756-0.153 1.029-0.426s0.426-0.643 0.426-1.029v-20.364h-20.364v21.818z"></path>
</symbol>
<symbol id="icon-develop" viewBox="0 0 32 32">
<path fill="#2ec5ce" style="fill: var(--color2, #2ec5ce)" d="M32 7.273v-5.818c0-0.386-0.153-0.756-0.426-1.029s-0.643-0.426-1.029-0.426h-29.091c-0.386 0-0.756 0.153-1.029 0.426s-0.426 0.643-0.426 1.029v5.818h32z"></path>
<path fill="#d6b1ff" style="fill: var(--color3, #d6b1ff)" d="M0 10.182v20.364c0 0.386 0.153 0.756 0.426 1.029s0.643 0.426 1.029 0.426h7.273v-21.818h-8.727z"></path>
<path fill="#8c30f5" style="fill: var(--color1, #8c30f5)" d="M11.636 32h18.909c0.386 0 0.756-0.153 1.029-0.426s0.426-0.643 0.426-1.029v-20.364h-20.364v21.818z"></path>
</symbol>
<symbol id="icon-ideate" viewBox="0 0 32 32">
<path fill="#d6b1ff" style="fill: var(--color3, #d6b1ff)" d="M24 13.333h8l-4-5.333-4 5.333zM24 18.667h8l-4 5.333-4-5.333z"></path>
<path fill="#8c30f5" style="fill: var(--color1, #8c30f5)" d="M1.333 0h8v32h-8c-0.354 0-0.693-0.141-0.943-0.391s-0.391-0.589-0.391-0.943v-29.333c0-0.354 0.14-0.693 0.391-0.943s0.589-0.391 0.943-0.391z"></path>
<path fill="#2ec5ce" style="fill: var(--color2, #2ec5ce)" d="M12 0h8c0.354 0 0.693 0.14 0.943 0.391s0.391 0.589 0.391 0.943v29.333c0 0.354-0.141 0.693-0.391 0.943s-0.589 0.391-0.943 0.391h-8v-32z"></path>
</symbol>
<symbol id="icon-arrowLeft" viewBox="0 0 50 32">
<path d="M17.616 3.902c0.893-0.893 0.893-2.34 0-3.232s-2.34-0.893-3.232 0l-13.714 13.714c-0.893 0.893-0.893 2.34 0 3.232l13.714 13.714c0.893 0.893 2.34 0.893 3.232 0s0.893-2.34 0-3.232l-9.812-9.812h40.171c1.276 0 2.311-1.023 2.311-2.286s-1.035-2.286-2.311-2.286h-40.171l9.812-9.812z"></path>
</symbol>
<symbol id="icon-arrowRight" viewBox="0 0 50 32">
<path d="M32.67 3.902c-0.893-0.893-0.893-2.34 0-3.232s2.34-0.893 3.233 0l13.714 13.714c0.893 0.893 0.893 2.34 0 3.232l-13.714 13.714c-0.893 0.893-2.34 0.893-3.233 0s-0.893-2.34 0-3.232l9.812-9.812h-40.171c-1.276 0-2.311-1.023-2.311-2.286s1.035-2.286 2.311-2.286h40.171l-9.812-9.812z"></path>
</symbol>
</defs>
</svg>
